<?xml version="1.0" encoding="utf-8"?>
<!-- Generator: Adobe Illustrator 16.0.0, SVG Export Plug-In . SVG Version: 6.00 Build 0)  -->
<!DOCTYPE svg PUBLIC "-//W3C//DTD SVG 1.1//EN" "http://www.w3.org/Graphics/SVG/1.1/DTD/svg11.dtd">
<svg version="1.1" id="图层_1" xmlns="http://www.w3.org/2000/svg" xmlns:xlink="http://www.w3.org/1999/xlink" x="0px" y="0px"
	 width="289px" height="299.891px" viewBox="0 0 289 299.891" enable-background="new 0 0 289 299.891" xml:space="preserve">
<path fill="#666564" d="M144.438,10.666c-38.384,0-73.134,15.559-98.289,40.712l98.289,98.288V10.666z"/>
<path fill="#606060" d="M46.151,51.38C20.996,76.533,5.438,111.281,5.438,149.666h139L46.151,51.38z"/>
<path fill="#727271" d="M242.727,51.38c-25.152-25.154-59.902-40.712-98.287-40.712v139L242.727,51.38z"/>
<path fill="#898888" d="M283.438,149.666c0-38.383-15.557-73.133-40.711-98.288l-98.289,98.288H283.438z"/>
<path fill="#BCB4AF" d="M144.438,288.668c38.384,0,73.132-15.56,98.287-40.713l-98.287-98.289V288.668z"/>
<path fill="#DCD5CD" d="M5.438,149.666c0,38.384,15.558,73.134,40.712,98.289l98.288-98.289H5.438z"/>
<path fill="#B2ADA6" d="M144.438,149.666l98.287,98.289c25.155-25.154,40.713-59.904,40.713-98.289H144.438z"/>
<path fill="#CCC1B8" d="M46.151,247.955c25.153,25.153,59.902,40.712,98.289,40.712v-139L46.151,247.955z"/>
<rect x="-22.867" y="-26" fill="none" width="595.281" height="841.891"/>
</svg>
