<?xml version="1.0" encoding="utf-8"?>
<!-- Generator: Adobe Illustrator 16.0.0, SVG Export Plug-In . SVG Version: 6.00 Build 0)  -->
<!DOCTYPE svg PUBLIC "-//W3C//DTD SVG 1.1//EN" "http://www.w3.org/Graphics/SVG/1.1/DTD/svg11.dtd">
<svg version="1.1" id="图层_1" xmlns="http://www.w3.org/2000/svg" xmlns:xlink="http://www.w3.org/1999/xlink" x="0px" y="0px"
	 width="192px" height="107px" viewBox="0 0 192 107" enable-background="new 0 0 192 107" xml:space="preserve">
<g>
	<g>
		<path fill="#DCD5CD" d="M11.327,17.901c0-4.677,3.827-8.504,8.504-8.504h11.338c4.677,0,8.504,3.827,8.504,8.504v68.031
			c0,4.677-3.827,8.504-8.504,8.504H19.831c-4.677,0-8.504-3.827-8.504-8.504V17.901z"/>
	</g>
	<g>
		<path fill="#C7C2BC" d="M46.994,17.901c0-4.677,3.827-8.504,8.504-8.504h11.338c4.677,0,8.504,3.827,8.504,8.504v68.031
			c0,4.677-3.827,8.504-8.504,8.504H55.498c-4.677,0-8.504-3.827-8.504-8.504V17.901z"/>
	</g>
	<g>
		<path fill="#B3AFAB" d="M82.661,17.901c0-4.677,3.827-8.504,8.504-8.504h11.337c4.677,0,8.504,3.827,8.504,8.504v68.03
			c0,4.677-3.827,8.504-8.504,8.504H91.165c-4.677,0-8.504-3.827-8.504-8.504V17.901z"/>
	</g>
	<g>
		<path fill="#9E9B99" d="M118.327,17.901c0-4.677,3.827-8.504,8.504-8.504h11.338c4.677,0,8.504,3.827,8.504,8.504v68.03
			c0,4.677-3.827,8.504-8.504,8.504h-11.338c-4.677,0-8.504-3.827-8.504-8.504V17.901z"/>
	</g>
	<g>
		<path fill="#898888" d="M153.994,17.901c0-4.677,3.827-8.504,8.504-8.504h11.338c4.677,0,8.504,3.827,8.504,8.504v68.03
			c0,4.677-3.827,8.504-8.504,8.504h-11.338c-4.677,0-8.504-3.827-8.504-8.504V17.901z"/>
	</g>
</g>
</svg>
