<?xml version="1.0" encoding="utf-8"?>
<!-- Generator: Adobe Illustrator 16.0.0, SVG Export Plug-In . SVG Version: 6.00 Build 0)  -->
<!DOCTYPE svg PUBLIC "-//W3C//DTD SVG 1.1//EN" "http://www.w3.org/Graphics/SVG/1.1/DTD/svg11.dtd">
<svg version="1.1" id="图层_1" xmlns="http://www.w3.org/2000/svg" xmlns:xlink="http://www.w3.org/1999/xlink" x="0px" y="0px"
	 width="184.252px" height="184.252px" viewBox="0 0 184.252 184.252" enable-background="new 0 0 184.252 184.252"
	 xml:space="preserve">
<rect x="-174" y="-100.891" fill="none" width="595.282" height="841.89"/>
<g>
	<path fill="#DCD5CD" d="M4.126,32.473c0-15.591,12.756-28.347,28.347-28.347h119.305c15.592,0,28.348,12.756,28.348,28.347V151.78
		c0,15.591-12.756,28.347-28.348,28.347H32.473c-15.591,0-28.347-12.756-28.347-28.347V32.473z"/>
</g>
<g>
	<path d="M151.778,181.127H32.473c-16.182,0-29.347-13.165-29.347-29.347V32.473c0-16.182,13.165-29.347,29.347-29.347h119.305
		c16.183,0,29.348,13.165,29.348,29.347V151.78C181.126,167.962,167.961,181.127,151.778,181.127z M32.473,5.126
		c-15.079,0-27.347,12.268-27.347,27.347V151.78c0,15.079,12.268,27.347,27.347,27.347h119.305
		c15.079,0,27.348-12.268,27.348-27.347V32.473c0-15.079-12.269-27.347-27.348-27.347H32.473z"/>
</g>
</svg>
