<?xml version="1.0" encoding="utf-8"?>
<!-- Generator: Adobe Illustrator 16.0.0, SVG Export Plug-In . SVG Version: 6.00 Build 0)  -->
<!DOCTYPE svg PUBLIC "-//W3C//DTD SVG 1.1//EN" "http://www.w3.org/Graphics/SVG/1.1/DTD/svg11.dtd">
<svg version="1.1" id="图层_1" xmlns="http://www.w3.org/2000/svg" xmlns:xlink="http://www.w3.org/1999/xlink" x="0px" y="0px"
	 width="198.425px" height="184.252px" viewBox="0 0 198.425 184.252" enable-background="new 0 0 198.425 184.252"
	 xml:space="preserve">
<ellipse fill="#DCD5CD" cx="98.852" cy="91.835" rx="91.087" ry="87.536"/>
<path d="M98.852,180.371c-50.777,0-92.087-39.717-92.087-88.536c0-48.819,41.31-88.536,92.087-88.536
	c50.777,0,92.087,39.717,92.087,88.536C190.939,140.654,149.629,180.371,98.852,180.371z M98.852,5.299
	c-49.674,0-90.087,38.82-90.087,86.536c0,47.716,40.413,86.536,90.087,86.536c49.674,0,90.087-38.82,90.087-86.536
	C188.939,44.119,148.526,5.299,98.852,5.299z"/>
<g id="图层_9">
</g>
<g id="参考线">
</g>
</svg>
