<?xml version="1.0" encoding="utf-8"?>
<!-- Generator: Adobe Illustrator 16.0.0, SVG Export Plug-In . SVG Version: 6.00 Build 0)  -->
<!DOCTYPE svg PUBLIC "-//W3C//DTD SVG 1.1//EN" "http://www.w3.org/Graphics/SVG/1.1/DTD/svg11.dtd">
<svg version="1.1" id="图层_1" xmlns="http://www.w3.org/2000/svg" xmlns:xlink="http://www.w3.org/1999/xlink" x="0px" y="0px"
	 width="221.667px" height="52.667px" viewBox="0 0 221.667 52.667" enable-background="new 0 0 221.667 52.667"
	 xml:space="preserve">
<path fill="#DCD5CD" d="M197.679,5.115H27.601c-11.741,0-21.26,9.519-21.26,21.26c0,11.74,9.519,21.259,21.26,21.259h170.079
	c11.74,0,21.26-9.52,21.26-21.259C218.939,14.634,209.419,5.115,197.679,5.115z"/>
<path d="M197.679,48.634H27.601c-12.274,0-22.26-9.985-22.26-22.259c0-12.274,9.986-22.26,22.26-22.26h170.079
	c12.274,0,22.26,9.986,22.26,22.26C219.939,38.649,209.954,48.634,197.679,48.634z M27.601,6.115c-11.171,0-20.26,9.089-20.26,20.26
	s9.088,20.259,20.26,20.259h170.079c11.171,0,20.26-9.088,20.26-20.259s-9.089-20.26-20.26-20.26H27.601z"/>
</svg>
