<?xml version="1.0" encoding="utf-8"?>
<!-- Generator: Adobe Illustrator 16.0.0, SVG Export Plug-In . SVG Version: 6.00 Build 0)  -->
<!DOCTYPE svg PUBLIC "-//W3C//DTD SVG 1.1//EN" "http://www.w3.org/Graphics/SVG/1.1/DTD/svg11.dtd">
<svg version="1.1" id="图层_1" xmlns="http://www.w3.org/2000/svg" xmlns:xlink="http://www.w3.org/1999/xlink" x="0px" y="0px"
	 width="184.252px" height="170.079px" viewBox="0 0 184.252 170.079" enable-background="new 0 0 184.252 170.079"
	 xml:space="preserve">
<rect x="-174" y="-100.891" fill="none" width="595.282" height="841.89"/>
<g>
	<path fill="#DCD5CD" d="M33.388,152.458c-15.591,0-21.969-11.047-14.173-24.549L77.953,26.171c7.795-13.502,20.551-13.502,28.346,0
		l58.739,101.738c7.795,13.502,1.417,24.549-14.174,24.549H33.388z"/>
</g>
<g>
	<path d="M150.864,153.458H33.388c-7.913,0-13.852-2.738-16.723-7.711c-2.871-4.973-2.273-11.485,1.684-18.338L77.087,25.671
		c3.957-6.853,9.297-10.626,15.039-10.626c5.742,0,11.083,3.774,15.039,10.626l58.739,101.738
		c3.956,6.853,4.554,13.365,1.683,18.338S158.777,153.458,150.864,153.458z M92.126,17.044c-4.997,0-9.723,3.419-13.307,9.626
		L20.081,128.409c-3.584,6.208-4.182,12.01-1.684,16.338c2.499,4.327,7.822,6.711,14.991,6.711h117.476
		c7.168,0,12.492-2.384,14.99-6.711c2.499-4.328,1.901-10.13-1.683-16.338L105.433,26.671
		C101.849,20.463,97.123,17.044,92.126,17.044z"/>
</g>
</svg>
