<?xml version="1.0" standalone="no"?>
<!DOCTYPE svg PUBLIC "-//W3C//DTD SVG 1.1//EN" "http://www.w3.org/Graphics/SVG/1.1/DTD/svg11.dtd" >
<!--
2013-9-30: Created.
-->
<svg>
<metadata>
Created by iconfont
</metadata>
<defs>

<font id="iconfont" horiz-adv-x="1024" >
  <font-face
    font-family="iconfont"
    font-weight="500"
    font-stretch="normal"
    units-per-em="1024"
    ascent="896"
    descent="-128"
  />
    <missing-glyph />
    
    <glyph glyph-name="x" unicode="x" horiz-adv-x="1001"
d="M281 543q-27 -1 -53 -1h-83q-18 0 -36.5 -6t-32.5 -18.5t-23 -32t-9 -45.5v-76h912v41q0 16 -0.5 30t-0.5 18q0 13 -5 29t-17 29.5t-31.5 22.5t-49.5 9h-133v-97h-438v97zM955 310v-52q0 -23 0.5 -52t0.5 -58t-10.5 -47.5t-26 -30t-33 -16t-31.5 -4.5q-14 -1 -29.5 -0.5
t-29.5 0.5h-32l-45 128h-439l-44 -128h-29h-34q-20 0 -45 1q-25 0 -41 9.5t-25.5 23t-13.5 29.5t-4 30v167h911zM163 247q-12 0 -21 -8.5t-9 -21.5t9 -21.5t21 -8.5q13 0 22 8.5t9 21.5t-9 21.5t-22 8.5zM316 123q-8 -26 -14 -48q-5 -19 -10.5 -37t-7.5 -25t-3 -15t1 -14.5
t9.5 -10.5t21.5 -4h37h67h81h80h64h36q23 0 34 12t2 38q-5 13 -9.5 30.5t-9.5 34.5q-5 19 -11 39h-368zM336 498v228q0 11 2.5 23t10 21.5t20.5 15.5t34 6h188q31 0 51.5 -14.5t20.5 -52.5v-227h-327z" />
    

    
    <glyph glyph-name="faxian" unicode="&#58921;" d="M956.914604 385.387603c0-85.581144-184.132694-268.086781-446.594361-268.086781C254.564301 117.24454 63.726905 296.789753 63.726905 385.387603c0 88.545662 191.678554 267.812535 446.593338 267.812535C774.789637 653.201162 956.970886 473.933265 956.914604 385.387603L956.914604 385.387603 956.914604 385.387603zM510.711146 604.262566c-118.881574 0-215.193107-98.038874-215.193107-218.98548 0-120.94456 96.368838-219.040738 215.193107-219.040738 118.884644 0 215.254505 98.095155 215.254505 219.040738C725.965651 506.223692 629.594767 604.262566 510.711146 604.262566L510.711146 604.262566 510.711146 604.262566zM510.320243 525.04741c-75.697029 0-137.038096-62.455447-137.038096-139.490961 0-77.033467 61.343113-139.433656 137.038096-139.433656 75.697029 0 137.039119 62.456471 137.039119 139.494031C647.359362 462.646198 586.018296 525.04741 510.320243 525.04741L510.320243 525.04741 510.320243 525.04741z"  horiz-adv-x="1024" />

    
    <glyph glyph-name="pintu" unicode="&#58884;" d="M65.30048 837.13536l581.07392 0 0-583.16288-581.07392 0 0 583.16288ZM687.3856 837.13536l271.3088 0 0-272.29184-271.3088 0 0 272.29184ZM687.3856 524.91776l271.3088 0 0-272.29696-271.3088 0 0 272.29696ZM687.3856 204.91776l271.3088 0 0-272.30208-271.3088 0 0 272.30208ZM376.3456 204.91776l271.3088 0 0-272.30208-271.3088 0 0 272.30208ZM65.30048 204.91776l271.3088 0 0-272.30208-271.3088 0 0 272.30208Z"  horiz-adv-x="1024" />

    
    <glyph glyph-name="caijianline" unicode="&#59212;" d="M960 128l-64 0L896 676.608l44.032 44.032c25.792 25.792 25.792 67.648 0 93.44-25.792 25.792-67.648 25.792-93.44 0L800.512 768 256 768 256 832c0 35.328-28.672 64-64 64C156.672 896 128 867.328 128 832l0-64L64 768C28.672 768 0 739.328 0 704c0-35.328 28.672-64 64-64l64 0 0-565.888c-1.344-11.84-0.064-23.616 4.992-34.688 2.56-6.208 6.656-11.392 10.944-16.448 0.832-0.96 1.152-2.176 2.048-3.072 0 0 0.064 0 0.064-0.064C157.632 7.744 173.824 0 192 0l576 0 0-64c0-35.328 28.672-64 64-64s64 28.672 64 64l0 64 64 0c35.328 0 64 28.672 64 64C1024 99.328 995.328 128 960 128zM672.512 640 256 223.488 256 640 672.512 640zM347.392 128 768 548.608 768 128 347.392 128z"  horiz-adv-x="1024" />

    
    <glyph glyph-name="0202chazhao" unicode="&#58885;" d="M262.871501 398.762215a228.424 227.668 0 1 0 467.49539 0 228.424 227.668 0 1 0-467.49539 0ZM512.000512 831.979918c-247.272733 0-447.725114-200.453405-447.725114-447.725114 0-247.270686 200.453405-447.724091 447.725114-447.724091 247.270686 0 447.724091 200.454428 447.724091 447.724091C959.724603 631.526513 759.271198 831.979918 512.000512 831.979918zM809.909505 99.036853l-14.159488-14.114462c-10.68434-10.646478-28.004821-10.646478-38.689161 0l-70.294996 71.863724c-52.386114-40.952714-118.404714-65.375963-190.146665-65.375963-170.307827 0-308.370253 137.607054-308.370253 307.353087 0 169.743986 138.062426 307.350017 308.370253 307.350017S804.987403 568.507224 804.987403 398.763239c0-71.396073-24.428366-137.098471-65.401546-189.274808l70.323649-71.8934C820.592822 126.948553 820.592822 109.684354 809.909505 99.036853z"  horiz-adv-x="1024" />

    
    <glyph glyph-name="xiaoguo" unicode="&#58905;" d="M279.241656 859.039639 332.0186 658.704111 500.343815 598.054233 332.749321 535.424336 282.353114 334.523088 229.552599 534.835044 61.227384 595.461351 228.821877 658.067676ZM630.412228 800.9355 696.153584 668.156346 822.804107 649.841168 714.350905 581.884075 707.89227 433.87763 642.150914 566.633212 515.500391 584.971963 623.930022 652.905483ZM298.688274 323.915842 328.223562 239.788592 402.545003 219.611252 332.796464 186.940933 318.064178 98.971502 288.528889 183.122324 214.207449 203.346807 283.955987 235.993555ZM416.027991 372.992035l99.18954 99.18954c21.355923 21.355923 56.312693 21.355923 77.621472 0l149.797891-149.797891-176.834584-176.811012L416.027991 295.394135C394.69564 316.702914 394.69564 351.636113 416.027991 372.992035L416.027991 372.992035zM777.169375 287.874776l-176.811012-176.834584 152.084342-152.084342c21.355923-21.355923 56.289121-21.355923 77.621472 0l99.165968 99.18954c21.355923 21.355923 21.355923 56.289121 0 77.621472L777.169375 287.874776 777.169375 287.874776zM436.464619 326.697298l125.071221-125.094793 125.094793 125.094793-125.094793 125.071221L436.464619 326.697298z"  horiz-adv-x="1024" />

    
    <glyph glyph-name="deng" unicode="&#58913;" d="M279.507-49.329c-5.812 6.788-10.568 14.849-10.568 17.912 0 6.434 19.641 44.946 25.252 49.513 2.076 1.69 5.9 9.976 8.497 18.413 2.597 8.437 6.421 16.721 8.497 18.409 2.076 1.687 6.721 8.406 10.322 14.931 11.737 21.268 25.764 26.151 36.047 12.547 5.046-6.675 9.262-17.62 9.369-24.321 0.206-12.883-30.327-78.425-38.156-81.905-2.531-1.125-4.602-5.76-4.602-10.3 0-10.262-16.743-27.54-26.688-27.54-4.071 0-12.158 5.554-17.97 12.343zM440.863 175.768c-5.002 2.116-12.793 7.545-17.313 12.065-4.52 4.52-15.011 8.218-23.313 8.218-8.302 0-16.684 4.142-18.627 9.204-1.943 5.062-7.205 9.204-11.693 9.204-8.853 0-51.748 42.58-51.835 51.455-0.029 2.988-7.497 12.332-16.596 20.764-13.472 12.486-17.026 22.012-19.146 51.328-1.432 19.798-5.033 35.997-8.002 35.997-2.969 0-5.399 12.426-5.399 27.613 0 15.187 2.419 27.613 5.376 27.613 2.957 0 6.657 15.441 8.222 34.314 1.565 18.873 5.641 36.131 9.057 38.352 13.76 8.944 25.697 49.548 27.636 94.004 2.547 58.393 12.62 72.644 51.349 72.644h26.103l2.093 62.913c3.011 90.514 2.984 90.493 118.975 90.493 88.651 0 89.373-0.112 104.316-16.237 13.856-14.951 15.048-21.024 15.048-76.703v-60.466l16.875-0.106c9.686-0.061 22.757-6.311 30.681-14.672 12.223-12.895 13.807-20.92 13.807-69.964 0-53.472 9.213-87.433 27.243-100.423 8.87-6.391 7.421-166.343-1.534-169.328-4.015-1.338-7.3-5.917-7.3-10.175 0-4.258-5.523-12.74-12.273-18.848-6.75-6.109-12.273-13.348-12.273-16.087 0-6.487-41.856-48.343-48.343-48.343-2.739 0-9.731-5.249-15.537-11.665-5.806-6.416-19.84-13.406-31.186-15.535-11.346-2.129-21.748-7.234-23.116-11.346-2.678-8.053-116.434-13.414-133.295-6.282zM579.629 245.642c11.367 7.025 20.667 15.309 20.667 18.409 0 3.1 3.528 5.636 7.841 5.636 8.654 0 28.977 21.353 28.977 30.447 0 3.169 3.603 7.969 8.007 10.668 4.404 2.699 14.373 15.39 22.153 28.203 12.074 19.883 13.79 29.599 11.715 66.325-1.337 23.666-5.411 44.938-9.054 47.271-3.642 2.333-8.747 11.145-11.345 19.582-2.597 8.437-7.802 17.309-11.566 19.715-3.919 2.505-7.76 28.070-8.988 59.828l-2.145 55.454h-256.502v-36.455c0-20.050-2.383-37.928-5.295-39.728-2.912-1.8-8.793-15.769-13.070-31.043-4.276-15.274-9.959-27.771-12.627-27.771-2.668 0-6.671-8.284-8.894-18.409-2.224-10.125-6.585-18.409-9.692-18.409-3.107 0-5.649-15.187-5.649-33.749 0-18.562 2.761-33.749 6.136-33.749 3.375 0 6.136-6.474 6.136-14.386 0-7.912 6.9-22.409 15.333-32.215 8.433-9.806 15.337-20.097 15.341-22.87 0.009-6.152 15.894-22.573 21.836-22.573 2.363 0 14.994-9.665 28.069-21.477 23.701-21.412 23.95-21.477 82.859-21.477 49.148 0 62.563 2.148 79.754 12.773zM574.486 713.030l-1.803 44.488h-110.452l-3.606-88.976h117.664l-1.803 44.488zM480.21-33.931c-2.229 11.882-2.915 39.471-1.525 61.308 1.933 30.355 5.35 41.786 14.513 48.545 10.803 7.969 13.649 7.256 28.86-7.23 15.311-14.582 16.875-20.102 16.875-59.581 0-47.99-10.223-64.646-39.678-64.646-12.293 0-15.722 3.89-19.045 21.604zM692.573-52.748c-11.781 14.195-29.852 52.043-34.114 71.447-2.151 9.795-6.454 17.809-9.56 17.809-10.104 0-5.957 22.364 6.184 33.351 14.209 12.859 34.933 8.183 40.425-9.12 2.088-6.577 6.338-11.959 9.446-11.959 3.108 0 7.416-11.045 9.575-24.545 2.159-13.5 6.114-24.545 8.789-24.545 2.675 0 6.725-8.469 8.998-18.821 6.693-30.471-22.125-54.847-39.743-33.618z"  horiz-adv-x="1024" />

    
    <glyph glyph-name="tuceng" unicode="&#59297;" d="M1021.159826 545.5764300000001c-4.292553 14.295384-16.382589 24.928314-31.111166 27.448712l-135.195737 22.998634 155.477067 145.749905c10.908599 10.239118 15.122389 25.715938 10.790455 40.090085-4.292553 14.295384-16.382589 24.967695-31.111166 27.448712l-505.654897 86.047971c-10.790455 1.850917-21.89596-0.827006-30.559829-7.561195L16.58422 552.271238C4.612329 543.1347949999999-1.019186 527.973024 1.973787 513.205065s14.098478-26.503563 28.708911-30.28416l152.129663-39.381223L16.58422 316.023284c-11.971892-9.136444-17.603406-24.298214-14.610434-39.066173s14.098478-26.464182 28.708911-30.244779l152.129663-39.381223L16.58422 79.77533000000005c-11.971892-9.136444-17.603406-24.298214-14.610434-39.066173s14.098478-26.464182 28.708911-30.244779l530.22878-137.204179C564.18012-127.56680700000004 567.488143-128 570.796165-128c9.884687 0 19.533086 3.741216 26.936756 10.672311l412.63645 386.605462c10.908599 10.239118 15.122389 25.715938 10.790455 40.090085-4.292553 14.295384-16.382589 24.967695-31.111166 27.448712l-135.195737 22.998634 155.477067 145.710523C1021.27797 515.7648449999999 1025.452379 531.241665 1021.159826 545.5764300000001zM898.56608 272.507033l-338.87542-317.570179L128.545036 66.46447699999999l150.948226 115.859557 281.418216-72.855262c3.268641-0.827006 6.576664-1.260199 9.884687-1.260199 9.884687 0 19.533086 3.741216 26.936756 10.672311l184.973602 173.31676L898.56608 272.507033zM559.69066 191.14542700000004L128.545036 302.71243100000004l150.948226 115.820175 281.418216-72.776499c3.268641-0.827006 6.576664-1.260199 9.884687-1.260199 9.884687 0 19.533086 3.741216 26.936756 10.672311l184.973602 173.31676 115.859557-19.729992L559.69066 191.14542700000004z"  horiz-adv-x="1024" />

    
    <glyph glyph-name="paiban" unicode="&#58972;" d="M992-128H31.296C14.016-128 0-113.98400000000004 0-96.70399999999995V236.35199999999998c0 17.28 14.016 31.296 31.296 31.296H992c17.28 0 31.296-14.016 31.296-31.296v-333.056c0.064-17.28-13.952-31.296-31.296-31.296zM62.656-65.34400000000005h898.048v270.4H62.656v-270.4zM992.32 292.60799999999995H551.296c-17.28 0-31.296 14.016-31.296 31.296v540.8C519.936 881.984 533.952 896 551.296 896h441.088c17.28 0 31.296-14.016 31.296-31.296v-199.552c0-17.28-14.016-31.296-31.296-31.296s-31.296 14.016-31.296 31.296V833.344H582.592V355.20000000000005h378.432v62.592c0 17.28 14.016 31.296 31.296 31.296s31.296-14.016 31.296-31.296v-93.888c0.064-17.28-13.952-31.296-31.296-31.296zM469.504 290.624H31.296C14.016 290.624 0 304.64 0 321.98400000000004v230.72C0 569.9839999999999 14.016 584 31.296 584h438.208c17.28 0 31.296-14.016 31.296-31.296v-230.72c0-17.344-14.016-31.36-31.296-31.36zM62.656 353.28h375.552V521.344H62.656V353.28zM469.824 602.624H31.68C14.4 602.624 0.384 616.64 0.384 633.9200000000001V864.64C0.32 881.984 14.336 896 31.68 896h438.208c17.28 0 31.296-14.016 31.296-31.296v-230.72c0-17.344-14.016-31.36-31.36-31.36zM62.976 665.28h375.552V833.344H62.976V665.28z"  horiz-adv-x="1024" />

    
    <glyph glyph-name="left" unicode="&#59075;" d="M402.746 749.254l-320-320c-24.994-24.992-24.994-65.516 0-90.508l320-320c24.994-24.992 65.516-24.992 90.51 0 24.996 24.992 24.996 65.516 0 90.508L282.508 320H896c35.346 0 64 28.652 64 64 0 35.346-28.654 64-64 64H282.508l210.746 210.746C505.75 671.242 512 687.622 512 704s-6.248 32.758-18.744 45.254c-24.996 24.994-65.516 24.994-90.51 0z"  horiz-adv-x="1024" />

    
    <glyph glyph-name="fuzhi" unicode="&#58985;" d="M864 128h-128V576a128 128 0 0 1-128 128H352V768a128 128 0 0 0 128 128h384a128 128 0 0 0 128-128v-512a128 128 0 0 0-128-128z m-192 384v-512a128 128 0 0 0-128-128H160a128 128 0 0 0-128 128V512a128 128 0 0 0 128 128h384a128 128 0 0 0 128-128z"  horiz-adv-x="1024" />

    
    <glyph glyph-name="sofa" unicode="&#59048;" d="M793.75 343.13h-563.5c-17.6 0-32-14.4-32-32v-151.143c0-17.6 14.4-32 32-32h563.5c17.6 0 32 14.4 32 32V311.13c0 17.6-14.4 32-32 32zM229.307 389.013h565.386c17.6 0 32 14.4 32 32V769.37c0 17.6-14.4 32-32 32H229.307c-17.6 0-32-14.4-32-32v-348.357c0-17.6 14.4-32 32-32zM928.214 468.63h-55.325v-353.128c0-17.6-14.4-32-32-32H190.924c-17.6 0-32 14.4-32 32V468.63H95.786c-17.6 0-32-14.4-32-32v-438c0-17.6 14.4-32 32-32h832.427c17.6 0 32 14.4 32 32v438c0.001 17.6-14.399 32-31.999 32z"  horiz-adv-x="1024" />

    
    <glyph glyph-name="icon_shouye-lunboyoufan" unicode="&#58893;" d="M770.795733 360.0224c0.580267 1.163733 1.6 2.1824 2.037334 3.348267 10.1856 21.2448 6.8384 47.438933-11.204267 64.464L350.385067 816.8128c-22.4128 21.246933-57.7728 20.226133-79.0176-2.181333-21.248-22.411733-20.228267-57.773867 2.1824-79.019734l369.0432-349.1072-367.589334-354.196266c-22.263467-21.392-22.845867-56.7552-1.453866-79.018667 10.914133-11.351467 25.610667-17.1712 40.162133-17.1712 13.9712 0 27.9392 5.2384 38.708267 15.7152L759.880533 344.597333c0.727467 0.727467 1.016533 1.890133 1.8912 2.618667 0.580267 0.580267 1.1648 1.016533 1.8912 1.598933 3.349333 3.348267 4.9504 7.424 7.1328 11.207467m0 0z"  horiz-adv-x="1024" />

    
    <glyph glyph-name="icon_shouye-lunbozuofan" unicode="&#58894;" d="M260.699733 408.2112c-0.580267-1.1648-1.6-2.183467-2.037333-3.348267-10.1856-21.2448-6.8384-47.44 11.204267-64.465066l411.243733-388.9792c22.4128-21.246933 57.7728-20.226133 79.0176 2.1824 21.248 22.411733 20.228267 57.7728-2.1824 79.018666L388.903467 381.728l367.588266 354.196267c22.263467 21.392 22.845867 56.756267 1.453867 79.018666-10.914133 11.352533-25.610667 17.1712-40.162133 17.1712-13.9712 0-27.9392-5.237333-38.708267-15.714133L271.614933 423.634133c-0.727467-0.727467-1.016533-1.889067-1.8912-2.618666-0.580267-0.5792-1.1648-1.016533-1.8912-1.597867-3.349333-3.348267-4.9504-7.422933-7.1328-11.2064m0 0z"  horiz-adv-x="1024" />

    
    <glyph glyph-name="suo_faaa_siyou" unicode="&#59015;" d="M780.063757 566.215018h-60.874439v60.205197c0 114.244974-92.944855 207.189829-207.18983 207.189829s-207.189829-92.944855-207.189829-207.189829v-60.205197h-60.874439c-57.490366 0-104.261599-46.01194-104.261599-102.568027v-426.687985c0-56.558134 46.771233-102.56905 104.261599-102.56905h536.127513c57.489342 0 104.261599 46.01194 104.261599 102.56905v426.687985c0.001023 56.556087-46.771233 102.568027-104.260575 102.568027z m-372.685048 60.205197c0 57.687864 46.932915 104.620779 104.620779 104.620779s104.619756-46.932915 104.619756-104.620779v-60.205197H407.378709v60.205197z m374.377596-588.964906c-0.24764-0.200568-0.768503-0.49528-1.692548-0.49528H243.93522c-0.925069 0-1.445932 0.294712-1.692549 0.49528v425.695379c0.246617 0.200568 0.76748 0.496304 1.692549 0.496303h536.127513c0.924045 0 1.444908-0.295735 1.692549-0.496303v-425.695379z"  horiz-adv-x="1024" />

    
    <glyph glyph-name="suo_faaa_gongkai" unicode="&#59016;" d="M780.063757 566.215018H407.379733v60.205197c0 57.687864 46.931892 104.620779 104.619755 104.620779 30.413684 0 59.278081-13.213953 79.193667-36.252668 10.143011-11.734252 24.439622-17.749246 38.821167-17.748223 11.880585 0.002047 23.821545 4.109598 33.516348 12.488429 21.425985 18.522865 23.781636 50.907437 5.259794 72.335468-39.414685 45.594431-96.561219 71.743998-156.789952 71.743998-114.244974 0-207.189829-92.944855-207.18983-207.18983v-60.205196h-60.874439c-57.489342 0-104.261599-46.01194-104.261598-102.568027v-426.687986c0-56.558134 46.772256-102.56905 104.261598-102.56905h536.128537c57.489342 0 104.261599 46.01194 104.261599 102.56905v426.687986c-0.001023 56.558134-46.77328 102.570073-104.262622 102.570073z m1.692548-528.759709c-0.24764-0.200568-0.768503-0.49528-1.692548-0.49528H243.93522c-0.924045 0-1.444908 0.294712-1.691525 0.49528v425.695379c0.246617 0.200568 0.76748 0.496304 1.691525 0.496303h536.128537c0.924045 0 1.444908-0.295735 1.692548-0.496303v-425.695379z"  horiz-adv-x="1024" />

    
    <glyph glyph-name="tubiao" unicode="&#59188;" d="M890.88 826.026667H170.666667c-47.786667 0-85.333333-37.546667-85.333334-85.333334v-713.386666c0-47.786667 37.546667-85.333333 85.333334-85.333334h718.506666c47.786667 0 85.333333 37.546667 85.333334 85.333334V740.693333c1.706667 47.786667-37.546667 85.333333-83.626667 85.333334z m51.2-798.72c0-29.013333-22.186667-51.2-51.2-51.2H170.666667c-29.013333 0-51.2 22.186667-51.2 51.2V740.693333c0 29.013333 22.186667 51.2 51.2 51.2h718.506666c29.013333 0 51.2-22.186667 51.2-51.2v-713.386666zM791.893333 493.226667c-32.426667 5.12-85.333333 13.653333-90.453333 13.653333H699.733333l-54.613333 8.533333-64.853333 131.413334c-17.066667 32.426667-37.546667 37.546667-49.493334 37.546666-11.946667 0-32.426667-5.12-49.493333-37.546666l-35.84-73.386667c0-1.706667-1.706667-1.706667-1.706667-3.413333l-27.306666-54.613334-56.32-8.533333c-5.12-1.706667-58.026667-8.533333-90.453334-13.653333-25.6-3.413333-42.666667-15.36-49.493333-32.426667-6.826667-15.36-1.706667-34.133333 11.946667-51.2l1.706666-1.706667 112.64-110.933333-11.946666-64.853333v-1.706667l-13.653334-80.213333c-5.12-27.306667 3.413333-44.373333 10.24-52.906667 11.946667-15.36 34.133333-18.773333 56.32-10.24 0 0 1.706667 0 1.706667 1.706667l141.653333 75.093333 141.653334-75.093333s1.706667 0 1.706666-1.706667c8.533333-3.413333 15.36-3.413333 22.186667-3.413333 13.653333 0 25.6 5.12 34.133333 15.36 6.826667 8.533333 15.36 25.6 10.24 52.906666l-13.653333 78.506667v3.413333l-10.24 63.146667 112.64 110.933333 1.706667 1.706667c13.653333 17.066667 17.066667 35.84 11.946666 51.2-6.826667 17.066667-25.6 29.013333-51.2 32.426667z m13.653334-61.44l-119.466667-116.053334c-3.413333-3.413333-5.12-10.24-5.12-15.36l11.946667-73.386666v-3.413334l13.653333-80.213333c1.706667-11.946667 1.706667-20.48-3.413333-25.6 0 0-1.706667-3.413333-8.533334-3.413333-3.413333 0-6.826667 0-10.24 1.706666L539.306667 196.266667c-5.12 3.413333-10.24 3.413333-15.36 0L375.466667 117.76c-3.413333-1.706667-6.826667-1.706667-10.24-1.706667-5.12 0-6.826667 1.706667-8.533334 3.413334-3.413333 3.413333-5.12 13.653333-3.413333 25.6l13.653333 80.213333v1.706667l11.946667 75.093333c1.706667 5.12-1.706667 11.946667-5.12 15.36L256 431.786667c-5.12 6.826667-6.826667 13.653333-5.12 17.066666 1.706667 3.413333 8.533333 8.533333 23.893333 11.946667 52.906667 8.533333 83.626667 11.946667 92.16 13.653333l63.146667 8.533334c5.12 0 10.24 5.12 13.653333 8.533333l30.72 63.146667c1.706667 1.706667 1.706667 3.413333 1.706667 5.12l35.84 71.68c6.826667 13.653333 13.653333 18.773333 18.773333 18.773333 5.12 0 11.946667-5.12 18.773334-18.773333l35.84-71.68c0-1.706667 1.706667-3.413333 3.413333-5.12l30.72-63.146667c1.706667-5.12 6.826667-8.533333 13.653333-8.533333l63.146667-8.533334c8.533333-1.706667 39.253333-6.826667 92.16-13.653333 15.36-1.706667 22.186667-6.826667 23.893333-11.946667 0-5.12-1.706667-10.24-6.826666-17.066666z"  horiz-adv-x="1024" />

    
    <glyph glyph-name="sousuo-fangdajing" unicode="&#58886;" d="M1102.769231-39.463385l-347.923693 341.858462a392.743385 392.743385 0 0 1 52.539077 193.614769C807.384615 716.957538 626.530462 896 403.692308 896 180.696615 896 0 716.957538 0 496.009846s180.696615-399.990154 403.692308-399.990154a403.062154 403.062154 0 0 1 272.699077 106.732308L1012.657231-128 1102.769231-39.463385z m-699.076923 293.021539c-135.876923 0-246.232615 108.859077-246.232616 242.451692C157.459692 629.76 267.815385 738.461538 403.692308 738.461538c135.719385 0 246.075077-108.701538 246.075077-242.451692 0-133.592615-110.355692-242.451692-246.075077-242.451692z"  horiz-adv-x="1102" />

    
    <glyph glyph-name="shadow" unicode="&#59168;" d="M902.882557 649.701313h-124.914009V774.614299c0 14.415281-11.775705 26.225799-26.190987 26.225799h-630.08879c-14.484906 0-26.260611-11.810517-26.260611-26.225799v-630.053978c0-14.484906 11.775705-26.260611 26.260611-26.260611h124.878174V-6.578463c0-14.484906 11.775705-26.260611 26.225798-26.260611h630.08879c14.415281 0 26.225799 11.775705 26.225799 26.260611V623.510327c0.001024 14.415281-11.809493 26.190987-26.224775 26.190986z m-754.933175 98.651352h577.497944v-577.531733H147.949382V748.352665z m151.139808-728.671541v55.752603l55.752604-55.752603h-55.752604z m130.749132 0l-98.617563 98.617563h50.576864l98.58275-98.617563h-50.542051z m125.502744 0l-98.582751 98.617563h42.795335l98.617563-98.617563h-42.830147z m117.827699 0l-98.617563 98.617563h45.435935l98.582751-98.617563h-45.401123z m120.361816 0l-98.582751 98.617563H737.743165l98.652375-98.617563h-42.864959z m83.020717 34.702545l-98.58275 98.652375v50.542051l98.58275-98.58275v-50.611676z m0 125.573392l-98.58275 98.582751v42.795334l98.58275-98.58275v-42.795335z m0 117.791863l-98.58275 98.617563v45.401123l98.58275-98.582751v-45.435935z m0 120.362839l-98.58275 98.582751v42.830147l98.58275-98.58275v-42.830148z m0 117.826676l-61.275441 61.310253h61.275441v-61.310253z"  horiz-adv-x="1024" />

    
    <glyph glyph-name="toushi" unicode="&#58903;" d="M993.385229-15.843603a32.044685 32.044685 0 0 1-32.044685-32.044685v-16.022342h-16.022342a32.044685 32.044685 0 0 1 0-64.08937h48.067027a32.044685 32.044685 0 0 1 32.044685 32.044685v48.067027a32.044685 32.044685 0 0 1-32.044685 32.044685zM849.184147-63.91063H753.050093a32.044685 32.044685 0 0 1 0-64.08937h96.134054a32.044685 32.044685 0 1 1 0 64.08937zM657.396709-63.91063h-96.134055a32.044685 32.044685 0 0 1 0-64.08937h96.134055a32.044685 32.044685 0 0 1 0 64.08937zM465.449047-63.91063h-96.134055a32.044685 32.044685 0 0 1 0-64.08937h96.134055a32.044685 32.044685 0 1 1 0 64.08937zM561.422878 831.898534h96.134054a32.044685 32.044685 0 0 1 0 64.089369h-96.134054a32.044685 32.044685 0 0 1 0-64.089369zM369.555328 831.898534h96.134054a32.044685 32.044685 0 0 1 0 64.089369h-96.134054a32.044685 32.044685 0 0 1 0-64.089369zM849.184147 895.987903H753.050093a32.044685 32.044685 0 0 1 0-64.089369h96.134054a32.044685 32.044685 0 0 1 0 64.089369zM993.385229 895.987903h-48.067027a32.044685 32.044685 0 0 1 0-64.089369h16.022342v-16.022343a32.044685 32.044685 0 0 1 64.08937 0V863.943218a32.044685 32.044685 0 0 1-32.044685 32.044685zM993.385229 751.947045a32.044685 32.044685 0 0 1-32.044685-32.044685v-96.134054a32.044685 32.044685 0 0 1 64.08937 0v96.134054a32.044685 32.044685 0 0 1-32.044685 32.044685zM993.385229 367.971609a32.044685 32.044685 0 0 1-32.044685-32.044685v-96.134054a32.044685 32.044685 0 0 1 64.08937 0v96.134054a32.044685 32.044685 0 0 1-32.044685 32.044685zM993.385229 560.239718a32.044685 32.044685 0 0 1-32.044685-32.044685v-96.134054a32.044685 32.044685 0 0 1 64.08937 0v96.134054a32.044685 32.044685 0 0 1-32.044685 32.044685zM993.385229 176.104059a32.044685 32.044685 0 0 1-32.044685-32.044685v-96.134054a32.044685 32.044685 0 1 1 64.08937 0v96.134054a32.044685 32.044685 0 0 1-32.044685 32.044685zM729.577361 625.210316a32.044685 32.044685 0 0 1-21.229603 30.522563L216.301622 831.898534h56.959428a32.044685 32.044685 0 0 1 0 64.089369h-96.134055a32.044685 32.044685 0 0 1-30.843009-39.33485l-33.086137 12.257091A32.044685 32.044685 0 0 1 81.633835 895.987903H32.925914A32.044685 32.044685 0 0 1 0 863.943218v-959.898533a32.044685 32.044685 0 0 1 32.044685-32.044685h49.58915a32.044685 32.044685 0 0 1 31.564014 26.917535l33.086137 11.776422a32.044685 32.044685 0 0 1 31.32368-38.693957h96.134054a32.044685 32.044685 0 0 1 0 64.08937h-56.078198L702.579714 108.810221a32.044685 32.044685 0 0 1 21.309716 29.801557z m-69.536966-463.446254l-594.428903-211.735254v2.082904a32.044685 32.044685 0 0 1-1.522122 9.212847v77.548137a32.044685 32.044685 0 0 1 1.522122 9.212847v96.134054A32.044685 32.044685 0 0 1 64.08937 153.272221v77.548137a32.044685 32.044685 0 0 1 1.522122 8.972512v96.134054A32.044685 32.044685 0 0 1 64.08937 345.219883v77.548137a32.044685 32.044685 0 0 1 1.522122 9.292959v96.134054A32.044685 32.044685 0 0 1 64.08937 537.167545v77.548137a32.044685 32.044685 0 0 1 1.522122 9.212847v96.134055A32.044685 32.044685 0 0 1 64.08937 729.115207v77.548137A32.044685 32.044685 0 0 1 65.611492 815.876191v2.002793L664.92721 603.099484z"  horiz-adv-x="1025" />

    
    <glyph glyph-name="ic_invert_colors_on_" unicode="&#59052;" d="M753.28 557.653333L512 799.146667 270.72 557.653333c-133.333333-133.333333-133.333333-349.44 0-482.773333 66.56-66.56 154.026667-100.053333 241.28-100.053333s174.72 33.28 241.28 100.053333c133.333333 133.333333 133.333333 349.44 0 482.773333zM512 60.373333c-68.48 0-132.693333 26.666667-180.906667 75.093334-48.426667 48.213333-75.093333 112.426667-75.093333 180.906666s26.666667 132.693333 75.093333 181.12L512 678.4v-618.026667z"  horiz-adv-x="1024" />

    
    <glyph glyph-name="shoucang" unicode="&#59005;" d="M255.99488 248.2432L0 497.8432l353.80736 51.42528 158.17728 320.5632 158.18752-320.55808L1024 497.8432l-256.02048-249.58464 60.36992-352.30208-316.3648 166.2976-316.43648-166.2976 60.44672 352.28672z m441.43104-172.11904l-35.38944 206.59712 150.0672 146.26304-207.33952 30.1312-92.7744 187.96544-92.7232-187.97056-207.39072-30.1312 150.05184-146.25792-35.44064-206.60224 185.49248 97.52064 185.4464-97.51552z"  horiz-adv-x="1024" />

    
    <glyph glyph-name="color" unicode="&#58920;" d="M981.1 680.6c-10.2 0-19.3-5.7-26.6-12.3-8.6-7.7-15.6-17.2-22.1-26.7-5.9-8.5-11.2-17.4-17.3-25.8-10.3-14.2-20.8-28.2-31.3-42.3-10.6-14.3-21.2-28.7-31.8-43-10.6-14.3-21.2-28.7-31.8-43-10.3-14-20.7-27.9-31.1-41.8-10.4-13.8-20.9-27.6-31.3-41.3-10.4-13.7-20.9-27.4-31.2-41.2-10.4-13.8-20.7-27.6-30.8-41.5-10.2-13.9-20.2-27.8-30-41.9-5.9-8.4-11.6-16.9-17.5-25.3-4.2-6-8.4-12.1-12.5-18.1-5.3-7.8-10.5-15.7-15.6-23.6-5.5-8.6-10.9-17.3-16-26.2-4.9-8.4-9.5-17-13.6-25.9-3.4-7.3-6.5-14.8-8.4-22.6-1.3-5.2-2.4-11.2-0.5-16.4 1.5-4 4.8-6.4 9-6.5 5.4-0.2 10.8 2.3 15.4 4.8 6.9 3.7 13.3 8.3 19.4 13.1 7.3 5.7 14.3 11.8 21.1 18.1 7 6.5 13.8 13.1 20.5 19.9 5.9 6 11.8 12.1 17.5 18.3 4.1 4.4 8.2 8.9 12.3 13.5 8.1 9.1 16 18.4 23.8 27.9 10.5 12.8 20.7 25.8 30.6 39 10 13.2 19.8 26.6 29.5 40.1s19.3 27 28.9 40.6c9.6 13.5 19.1 27 28.8 40.4 10 13.9 20.3 27.7 30.5 41.4 10.6 14.4 21.2 28.7 31.9 43.1 10.7 14.4 21.3 28.8 32 43.2 10.6 14.4 21.2 28.7 31.9 43.1 4.4 5.9 8.9 11.8 13.3 17.7 4.7 6.1 9.2 12.3 13.6 18.6 4.9 7.1 9.6 14.4 13.9 22 4 7.1 7.6 14.6 10 22.4 1.9 6.3 3.2 13.1 1.8 19.6-1.3 6-5.1 10.8-10.4 13.8-8.1 4-17.4 4.8-25.9 4.8-29.1 0 80.8 0 0 0zM691.1 612.2c-53.5 0-53.5-83 0-83s53.5 83 0 83zM504.6 666.2c-68 0-68-106.3 0-107 67.6-0.7 68.7 107 0 107zM311.6 549.2c-68 0-68-106.3 0-107 67.6-0.7 68.7 107 0 107zM230.1 365.2c-58.7 0-58.7-91 0-91s58.7 91 0 91zM521.9-89.8c-17 0-34 0.7-50.8 2.6-16.9 1.8-33.6 4.8-50 9.4-15.6 4.4-30.9 10.3-45 18.4-13.8 7.9-26.4 17.9-36.7 30-10.9 12.9-19 27.9-24.2 43.9-2.4 7.4-4.1 14.8-5 22.5-0.9 8-1.4 16.1-2.2 24.2-0.8 8.5-1.7 17.1-3.6 25.4-1.6 7.3-4 14.8-8.3 21-9.5 13.6-27.7 15-42.8 13.9-18.1-1.4-35.6-6.5-53.5-9.2-7.2-1.1-14.5-1.3-21.8-1.2-6.8 0.1-13.7 0.6-20.4 1.5-12.1 1.6-24 4.7-35.2 9.6-10.3 4.5-20 10.4-28.6 17.6-8.4 7-15.8 15.3-22.2 24.2-6.6 9.3-12.1 19.5-16.6 30-4.8 11.1-8.5 22.7-11.4 34.4-3.1 12.3-5.2 24.9-6.7 37.5-1.6 13.2-2.4 26.5-2.7 39.8-0.3 13.5 0 27.1 0.8 40.6 0.8 13.6 2 27.1 3.7 40.6 1.6 13.1 3.6 26.2 6 39.2 2.3 12.2 4.9 24.4 7.8 36.5 2.7 11.1 5.7 22.1 9.1 33 3.3 10.6 6.9 21.1 11 31.4 6.1 15.5 13.1 30.6 20.9 45.4 7.8 14.8 16.4 29.3 25.7 43.2 9.3 13.9 19.2 27.4 29.8 40.4 10.7 13.1 22 25.6 33.8 37.7 11.9 12 24.3 23.5 37.2 34.5 12.9 10.9 26.2 21.2 40 30.8 13.8 9.7 28.1 18.8 42.7 27.2 14.5 8.4 29.4 16.1 44.6 23.1 15.2 7 30.8 13.3 46.6 18.9 15.7 5.5 31.7 10.3 47.8 14.3 16 3.9 32.1 7.1 48.4 9.4 16.3 2.3 32.7 3.7 49.1 4.3 16.3 0.5 32.6 0.2 48.8-1.2 16.3-1.3 32.6-3.6 48.6-6.9 16.2-3.3 32.1-7.6 47.7-12.9 15.8-5.3 31.2-11.7 46.2-19 15.4-7.6 30.4-16.2 44.7-25.7 14.3-9.5 27.9-19.9 40.9-31.1-12.2-14.2-24.5-28.3-36.7-42.5-3.4-4-6.9-8-10.3-12.1-10.9 9.3-22.3 18-34.2 25.9-11.3 7.6-23.1 14.4-35.3 20.5-11.7 5.9-23.7 11-36 15.4-12 4.3-24.3 7.8-36.8 10.6-12.2 2.7-24.6 4.7-37.1 6-12.4 1.3-25 1.8-37.5 1.7-12.5-0.1-25-0.9-37.5-2.4s-24.8-3.5-37.1-6.2c-12.4-2.7-24.7-6-36.8-9.8-12.2-3.9-24.2-8.2-36-13.1-12-4.9-23.8-10.4-35.3-16.3-11.6-5.9-23-12.3-34.2-19.1-11.2-6.8-22.1-14-32.8-21.6-10.7-7.6-21.2-15.7-31.4-24-10.1-8.3-20-17-29.5-26s-18.8-18.4-27.7-28c-9.3-10.1-18.4-20.4-26.7-31.3-9.2-12-17.5-24.6-25-37.7-7.5-13.1-14.2-26.7-20.1-40.7-5.9-13.9-11.1-28.2-15.6-42.6-4.6-14.5-8.5-29.3-11.9-44.1-3.5-15.2-6.5-30.6-8.7-46.1-2.2-15.9-3.5-31.9-3.6-47.9-0.1-15.9 1.1-31.8 3.9-47.4 2.8-15.6 7.3-30.8 13.5-45.4 4.5-10.5 10.1-20.8 17.7-29.4 5.7-6.4 12.6-11.5 20.6-14.7 7.7-3 16.1-4.2 24.3-4.4 9.6-0.2 19.1 0.6 28.7 1.5 11.4 1.1 22.7 2.4 34.2 3 12.5 0.7 25.1 0.5 37.6-1.3 11.7-1.7 23.2-4.7 33.9-9.8 10.7-5.1 20.3-12.2 28.2-21 8.3-9.2 14.9-20.1 19.1-31.8 4.1-11.2 6.3-22.9 8-34.6 1.8-11.8 3.2-23.7 5.5-35.4 2.2-11.1 5.3-22.2 10.8-32.2 2.7-4.9 6-9.5 9.9-13.5 3.9-4 8.3-7.4 13-10.4 8.9-5.7 18.6-10 28.5-13.4 10.9-3.6 22.1-6 33.5-7.7 12.1-1.7 24.2-2.6 36.4-2.7 12.6-0.2 25.2 0.3 37.8 1.4 12.5 1 25 2.6 37.3 4.7 11.7 1.9 23.4 4.3 34.9 7.1 10.4 2.6 20.8 5.5 31 8.9 12.4 4.1 24.5 9 36.3 14.5 13.7 6.4 27.1 13.7 40 21.7 13 8.1 25.5 16.9 37.4 26.3 11.8 9.4 23.2 19.4 33.9 30 10.8 10.7 21 21.9 30.5 33.8 9.6 12.1 18.5 24.8 26.5 38.1s15.2 27.1 21.4 41.3c4.3 9.7 8.3 19.5 10.6 29.9 2 9 3.3 18.1 4.6 27.2 1.5 10.4 2.8 20.8 4.5 31.2 1.6 10.3 3.5 20.5 6.1 30.5 2.3 8.9 5.2 17.7 9.7 25.8 3.6 6.6 8.4 12.8 15 16.6 3.3 1.9 7.1 3.1 10.8 4.1 3.4 0.9 6.8 1.5 10.3 1.5 5.4 0.1 10.9-1.3 15.3-4.6 4.3-3.2 7.2-7.9 9.2-12.8 2.4-6 3.6-12.5 4.2-18.9 0.7-7.6 0.7-15.2 0.3-22.7-0.5-8.2-1.4-16.3-2.5-24.4-1.2-7.9-2.6-15.8-4.2-23.7-1.5-7-3.1-14-4.8-20.9-1.3-5.4-2.8-10.7-4.3-16-2.6-9.1-5.7-18.2-9-27.1-5.3-14.3-11.3-28.3-18.1-41.9-6.7-13.6-14.2-26.8-22.3-39.6-8.2-12.9-17-25.3-26.5-37.2-9.3-11.7-19.1-22.9-29.5-33.6-9.9-10.2-20.2-19.9-30.9-29.1-10.5-9.1-21.4-17.7-32.7-25.7-11.1-7.9-22.6-15.3-34.4-22.2-11.7-6.8-23.8-13.1-36.1-18.9-12.3-5.7-24.8-10.8-37.5-15.4-12.8-4.6-25.9-8.6-39-12-13.3-3.4-26.8-6.3-40.3-8.6-13.7-2.3-27.5-4-41.3-5.1-14.2-1.1-28.4-1.7-42.6-1.7h-19.5 20.4c0 0.3-0.1 0.3-0.2 0.3-86.9 0 5.1 0 0 0zM826 735c0-15.4-9.9-29.5-24.4-34.8-14.6-5.3-31.3-0.7-41.1 11.2-9.9 12-11.2 29.4-3.1 42.7 8 13.2 23.9 20.2 39.1 17.1 14.9-3 26.7-15.4 29.1-30.4 0.2-1.9 0.4-3.9 0.4-5.8z"  horiz-adv-x="1024" />

    
    <glyph glyph-name="jingxiang" unicode="&#58927;" d="M469.333333 810.666667v-853.333334H85.333333l384 853.333334z m-42.581333-196.992l-275.2-613.546667h275.2V613.717333zM554.666667 810.666667v-853.333334h384z"  horiz-adv-x="1024" />

    
    <glyph glyph-name="Group" unicode="&#58904;" d="M977.281192 448.834264H953.445065a119.180633 119.180633 0 0 0 119.180633-119.180633v23.836127a95.344507 95.344507 0 0 1-95.344506 95.344506zM468.141527-6.435753999999974v38.137802-64.357541a95.344507 95.344507 0 0 1 95.344507-95.344507h23.836126a119.180633 119.180633 0 0 0-119.180633 121.564246zM953.445065 401.162011h-36.230912l47.672253-91.054004a23.836127 23.836127 0 0 0-20.975791-34.800744h-294.137803a308.439479 308.439479 0 0 0-133.959032-216.43203v-65.310987a71.50838 71.50838 0 0 1 71.50838-71.50838H953.445065a71.50838 71.50838 0 0 1 71.50838 71.50838v333.705773a71.50838 71.50838 0 0 1-71.50838 73.891992zM953.445065-128h23.836127a95.344507 95.344507 0 0 1 95.344506 95.344507v23.836126a119.180633 119.180633 0 0 0-119.180633-119.180633zM953.445065 448.834264h-61.497207L662.64432 884.081937a24.789572 24.789572 0 0 1-41.951583 0L466.234637 591.374302a336.566108 336.566108 0 0 1-140.156425 30.510242A319.404097 319.404097 0 0 1 0 311.06145300000003a319.404097 319.404097 0 0 1 326.078212-310.823092 336.566108 336.566108 0 0 1 143.01676 31.463687v-38.137802a119.180633 119.180633 0 0 1 119.180633-119.180633H953.445065a119.180633 119.180633 0 0 1 119.180633 119.180633v333.705773A119.180633 119.180633 0 0 1 953.445065 448.834264zM47.672253 311.538175a271.731844 271.731844 0 0 0 278.405959 263.150838 289.370577 289.370577 0 0 0 118.227188-25.266294l-125.854748-238.361266a23.836127 23.836127 0 0 1 20.975791-34.800745h262.197393a274.115456 274.115456 0 0 0-275.545624-226.919926A271.731844 271.731844 0 0 0 47.672253 311.06145300000003z m330.845438 11.441341L643.575419 822.108007l262.674115-499.128491z m646.435754-329.41527a71.50838 71.50838 0 0 0-71.50838-73.891993h-366.122905a71.50838 71.50838 0 0 0-71.50838 71.50838v67.6946a308.439479 308.439479 0 0 1 133.959032 216.43203h294.137803a23.836127 23.836127 0 0 1 20.975791 34.800744l-47.672253 91.054004H953.445065a71.50838 71.50838 0 0 0 71.50838-71.50838zM601.623836 274.83054000000004h-262.197393a23.836127 23.836127 0 0 0-20.975791 34.800745l125.854748 238.361266a289.370577 289.370577 0 0 1-118.227188 25.266294A271.731844 271.731844 0 0 1 47.672253 311.06145300000003a271.731844 271.731844 0 0 1 278.405959-263.150838 274.115456 274.115456 0 0 1 275.545624 226.919925zM641.668529 822.108007L378.994413 322.502793h525.348231L641.668529 822.108007z"  horiz-adv-x="1075" />

    


  </font>
</defs>
</svg>
