<?xml version="1.0" encoding="utf-8"?>
<!-- Generator: Adobe Illustrator 16.0.0, SVG Export Plug-In . SVG Version: 6.00 Build 0)  -->
<!DOCTYPE svg PUBLIC "-//W3C//DTD SVG 1.1//EN" "http://www.w3.org/Graphics/SVG/1.1/DTD/svg11.dtd">
<svg version="1.1" id="图层_1" xmlns="http://www.w3.org/2000/svg" xmlns:xlink="http://www.w3.org/1999/xlink" x="0px" y="0px"
	 width="33px" height="33px" viewBox="0 0 33 33" enable-background="new 0 0 33 33" xml:space="preserve">
<g id="底圈">
	<circle fill="#040000" cx="16.349" cy="16.499" r="11.667"/>
</g>
<g id="数字">
	<g enable-background="new    ">
		<path fill="#FFFFFF" d="M11.282,14.14H8.649v-1.125c0.775,0.016,1.406-0.151,1.891-0.5c0.489-0.354,0.853-0.901,1.086-1.642h1.148
			v11.25h-0.742h-0.75V14.14z"/>
		<path fill="#FFFFFF" d="M24.049,14.187c0,0.828-0.213,1.509-0.637,2.043c-0.426,0.534-1.225,1.124-2.396,1.771
			c-1.27,0.699-2.137,1.334-2.602,1.914c-0.191,0.25-0.352,0.53-0.477,0.844h6.108v1.367h-7.703v-0.002
			c0-1.183,0.293-2.147,0.884-2.899c0.588-0.752,1.69-1.574,3.313-2.465c0.787-0.438,1.322-0.84,1.609-1.205
			c0.285-0.365,0.43-0.835,0.43-1.408c0-0.601-0.213-1.091-0.641-1.472c-0.429-0.382-0.976-0.571-1.642-0.571
			c-0.698,0-1.246,0.239-1.646,0.717c-0.396,0.479-0.609,1.156-0.637,2.033h-1.368c-0.021-1.239,0.311-2.212,0.993-2.918
			c0.68-0.706,1.633-1.06,2.854-1.06c1.041,0,1.895,0.311,2.563,0.931C23.717,12.417,24.049,13.213,24.049,14.187z"/>
	</g>
</g>
</svg>
