<?xml version="1.0" encoding="utf-8"?>
<!-- Generator: Adobe Illustrator 16.0.0, SVG Export Plug-In . SVG Version: 6.00 Build 0)  -->
<!DOCTYPE svg PUBLIC "-//W3C//DTD SVG 1.1//EN" "http://www.w3.org/Graphics/SVG/1.1/DTD/svg11.dtd">
<svg version="1.1" id="图层_1" xmlns="http://www.w3.org/2000/svg" xmlns:xlink="http://www.w3.org/1999/xlink" x="0px" y="0px"
	 width="33px" height="33px" viewBox="0 0 33 33" enable-background="new 0 0 33 33" xml:space="preserve">
<g id="底圈">
	<circle fill="#040000" cx="16.349" cy="16.499" r="11.667"/>
</g>
<g id="数字">
	<g enable-background="new    ">
		<path fill="#FFFFFF" d="M16.048,22.276c-0.995,0-1.788-0.266-2.379-0.801c-0.591-0.533-0.907-1.27-0.949-2.207h1.359
			c0.058,0.578,0.257,1.025,0.598,1.34c0.341,0.316,0.798,0.473,1.371,0.473c0.844,0,1.495-0.471,1.953-1.414
			c0.333-0.703,0.55-1.627,0.648-2.773c-0.698,0.859-1.565,1.289-2.602,1.289c-1.042,0-1.882-0.343-2.52-1.027
			s-0.957-1.587-0.957-2.707s0.347-2.021,1.039-2.703s1.606-1.023,2.742-1.023c1.208,0,2.14,0.429,2.793,1.285
			s0.98,2.074,0.98,3.652c0,2.12-0.354,3.754-1.063,4.898C18.355,21.704,17.35,22.276,16.048,22.276z M18.485,14.448
			c0-0.724-0.206-1.315-0.617-1.773s-0.942-0.688-1.594-0.688s-1.183,0.229-1.594,0.688s-0.617,1.05-0.617,1.773
			s0.206,1.316,0.617,1.777s0.942,0.691,1.594,0.691s1.183-0.231,1.594-0.695C18.279,15.764,18.485,15.172,18.485,14.448z"/>
	</g>
</g>
</svg>
