<?xml version="1.0" encoding="utf-8"?>
<!-- Generator: Adobe Illustrator 16.0.0, SVG Export Plug-In . SVG Version: 6.00 Build 0)  -->
<!DOCTYPE svg PUBLIC "-//W3C//DTD SVG 1.1//EN" "http://www.w3.org/Graphics/SVG/1.1/DTD/svg11.dtd">
<svg version="1.1" id="图层_1" xmlns="http://www.w3.org/2000/svg" xmlns:xlink="http://www.w3.org/1999/xlink" x="0px" y="0px"
	 width="33px" height="33px" viewBox="0 0 33 33" enable-background="new 0 0 33 33" xml:space="preserve">
<g id="底圈">
	<circle fill="#040000" cx="16.349" cy="16.499" r="11.667"/>
</g>
<g id="数字">
	<g enable-background="new    ">
		<path fill="#FFFFFF" d="M18.399,13.78c0-0.532-0.202-0.967-0.605-1.304s-0.921-0.505-1.551-0.505
			c-0.667,0-1.177,0.204-1.531,0.613s-0.55,1.02-0.586,1.832h-1.367c0-1.177,0.309-2.087,0.926-2.73s1.491-0.965,2.621-0.965
			c1.067,0,1.929,0.267,2.582,0.801s0.98,1.238,0.98,2.113c0,0.87-0.328,1.573-0.984,2.109c-0.125,0.104-0.261,0.198-0.406,0.281
			c0.271,0.12,0.511,0.263,0.719,0.43c0.703,0.553,1.055,1.297,1.055,2.234c0,1.053-0.364,1.914-1.094,2.582
			c-0.729,0.67-1.667,1.004-2.813,1.004c-1.261,0-2.211-0.303-2.852-0.91c-0.641-0.605-0.989-1.535-1.047-2.785h1.469
			c0.084,0.875,0.315,1.502,0.696,1.879c0.381,0.379,0.974,0.566,1.776,0.566c0.694,0,1.263-0.199,1.706-0.598
			s0.665-0.91,0.665-1.535c0-0.656-0.214-1.176-0.641-1.563c-0.364-0.333-0.833-0.521-1.406-0.563
			c-0.266-0.016-0.517-0.023-0.754-0.023s-0.395,0.011-0.473,0.031V15.55c0.114,0.025,0.292,0.039,0.531,0.039
			s0.477-0.016,0.711-0.047c0.453-0.058,0.82-0.206,1.102-0.446C18.209,14.782,18.399,14.344,18.399,13.78z"/>
	</g>
</g>
</svg>
