<?xml version="1.0" encoding="utf-8"?>
<!-- Generator: Adobe Illustrator 16.0.0, SVG Export Plug-In . SVG Version: 6.00 Build 0)  -->
<!DOCTYPE svg PUBLIC "-//W3C//DTD SVG 1.1//EN" "http://www.w3.org/Graphics/SVG/1.1/DTD/svg11.dtd">
<svg version="1.1" id="图层_1" xmlns="http://www.w3.org/2000/svg" xmlns:xlink="http://www.w3.org/1999/xlink" x="0px" y="0px"
	 width="33px" height="33px" viewBox="0 0 33 33" enable-background="new 0 0 33 33" xml:space="preserve">
<g id="底圈">
	<circle fill="#040000" cx="16.349" cy="16.499" r="11.667"/>
</g>
<g id="数字">
	<g enable-background="new    ">
		<path fill="#FFFFFF" d="M11.188,13.987H8.556v-1.125c0.776,0.016,1.406-0.151,1.891-0.5c0.489-0.354,0.852-0.901,1.086-1.641
			h1.148v11.25h-0.742h-0.75V13.987z"/>
		<path fill="#FFFFFF" d="M17.435,20.776c-0.669-1-1.004-2.424-1.004-4.273c0-1.849,0.335-3.274,1.004-4.277
			s1.618-1.504,2.848-1.504c1.239,0,2.192,0.501,2.859,1.504s1,2.429,1,4.277c0,1.85-0.333,3.273-1,4.273s-1.62,1.5-2.859,1.5
			C19.053,22.276,18.104,21.776,17.435,20.776z M22.063,19.886c0.396-0.75,0.591-1.877,0.586-3.383
			c0.005-1.505-0.19-2.634-0.586-3.387s-0.989-1.129-1.781-1.129c-0.786,0-1.375,0.376-1.766,1.129s-0.589,1.882-0.594,3.387
			c0.005,1.506,0.203,2.633,0.594,3.383s0.979,1.125,1.766,1.125C21.074,21.011,21.668,20.636,22.063,19.886z"/>
	</g>
</g>
</svg>
