<?xml version="1.0" encoding="utf-8"?>
<!-- Generator: Adobe Illustrator 16.0.0, SVG Export Plug-In . SVG Version: 6.00 Build 0)  -->
<!DOCTYPE svg PUBLIC "-//W3C//DTD SVG 1.1//EN" "http://www.w3.org/Graphics/SVG/1.1/DTD/svg11.dtd">
<svg version="1.1" id="图层_1" xmlns="http://www.w3.org/2000/svg" xmlns:xlink="http://www.w3.org/1999/xlink" x="0px" y="0px"
	 width="33px" height="33px" viewBox="0 0 33 33" enable-background="new 0 0 33 33" xml:space="preserve">
<g id="底圈">
	<circle fill="#040000" cx="16.349" cy="16.499" r="11.667"/>
</g>
<g id="数字">
	<g enable-background="new    ">
		<path fill="#FFFFFF" d="M18.298,16.019c0.302,0.136,0.578,0.305,0.828,0.508c0.703,0.567,1.055,1.317,1.055,2.25
			c0,1.053-0.352,1.898-1.055,2.539s-1.63,0.961-2.781,0.961s-2.077-0.32-2.777-0.961s-1.051-1.486-1.051-2.539
			c0-0.933,0.352-1.685,1.055-2.258c0.245-0.198,0.516-0.362,0.813-0.492c-0.188-0.104-0.367-0.219-0.539-0.344
			c-0.63-0.489-0.945-1.136-0.945-1.938c0-0.906,0.316-1.637,0.949-2.191s1.465-0.832,2.496-0.832s1.863,0.277,2.496,0.832
			s0.949,1.285,0.949,2.191c0,0.802-0.317,1.448-0.953,1.938C18.67,15.813,18.49,15.925,18.298,16.019z M16.345,16.651
			c-0.688,0-1.249,0.204-1.684,0.613s-0.652,0.934-0.652,1.574c0,0.637,0.218,1.156,0.652,1.563s0.996,0.609,1.684,0.609
			s1.25-0.203,1.688-0.609s0.656-0.926,0.656-1.563c0-0.641-0.219-1.167-0.656-1.578C17.595,16.854,17.032,16.651,16.345,16.651z
			 M16.345,15.433c0.573,0,1.042-0.16,1.406-0.48s0.547-0.733,0.547-1.238s-0.183-0.919-0.547-1.242s-0.833-0.484-1.406-0.484
			s-1.042,0.161-1.406,0.484s-0.547,0.737-0.547,1.242s0.183,0.919,0.547,1.242C15.303,15.273,15.771,15.433,16.345,15.433z"/>
	</g>
</g>
</svg>
