<?xml version="1.0" encoding="utf-8"?>
<!-- Generator: Adobe Illustrator 16.0.0, SVG Export Plug-In . SVG Version: 6.00 Build 0)  -->
<!DOCTYPE svg PUBLIC "-//W3C//DTD SVG 1.1//EN" "http://www.w3.org/Graphics/SVG/1.1/DTD/svg11.dtd">
<svg version="1.1" id="图层_1" xmlns="http://www.w3.org/2000/svg" xmlns:xlink="http://www.w3.org/1999/xlink" x="0px" y="0px"
	 width="33px" height="33px" viewBox="0 0 33 33" enable-background="new 0 0 33 33" xml:space="preserve">
<g id="底圈">
	<circle fill="#040000" cx="16.349" cy="16.499" r="11.667"/>
</g>
<g enable-background="new    ">
	<path fill="#FFFFFF" d="M20.2,14.187c0,0.828-0.212,1.509-0.637,2.043s-1.223,1.125-2.395,1.77
		c-1.271,0.699-2.138,1.336-2.602,1.914c-0.192,0.25-0.352,0.531-0.477,0.844H20.2v1.367h-7.703v-0.002
		c0-1.182,0.294-2.148,0.883-2.9s1.692-1.574,3.313-2.465c0.786-0.438,1.323-0.84,1.609-1.205s0.43-0.835,0.43-1.408
		c0-0.601-0.214-1.091-0.641-1.472s-0.974-0.571-1.641-0.571c-0.698,0-1.246,0.239-1.645,0.717c-0.398,0.479-0.61,1.156-0.637,2.033
		h-1.367c-0.021-1.239,0.31-2.212,0.992-2.918s1.633-1.059,2.852-1.059c1.042,0,1.896,0.31,2.563,0.93
		C19.869,12.418,20.2,13.213,20.2,14.187z"/>
</g>
</svg>
