<?xml version="1.0" encoding="utf-8"?>
<!-- Generator: Adobe Illustrator 16.0.0, SVG Export Plug-In . SVG Version: 6.00 Build 0)  -->
<!DOCTYPE svg PUBLIC "-//W3C//DTD SVG 1.1//EN" "http://www.w3.org/Graphics/SVG/1.1/DTD/svg11.dtd">
<svg version="1.1" id="图层_1" xmlns="http://www.w3.org/2000/svg" xmlns:xlink="http://www.w3.org/1999/xlink" x="0px" y="0px"
	 width="33px" height="33px" viewBox="0 0 33 33" enable-background="new 0 0 33 33" xml:space="preserve">
<g id="底圈">
	<circle fill="#040000" cx="16.349" cy="16.499" r="11.667"/>
</g>
<g id="数字">
	<g enable-background="new    ">
		<path fill="#FFFFFF" d="M20.204,18.241c0,1.152-0.36,2.094-1.082,2.824c-0.722,0.732-1.647,1.098-2.777,1.098
			c-1.125,0-2.028-0.281-2.711-0.844s-1.063-1.338-1.141-2.328h1.469c0.078,0.625,0.33,1.109,0.757,1.449
			c0.426,0.342,0.99,0.512,1.692,0.512c0.676,0,1.229-0.236,1.657-0.711c0.429-0.473,0.644-1.082,0.644-1.828
			c0-0.781-0.224-1.402-0.672-1.863s-1.055-0.691-1.82-0.691c-0.411,0-0.812,0.099-1.199,0.297s-0.681,0.45-0.879,0.758
			l-1.188-0.078l0.813-6h5.828v1.367h-4.775l-0.487,3.078l0.047-0.031c0.62-0.427,1.274-0.641,1.962-0.641
			c1.184,0,2.124,0.328,2.823,0.984C19.857,16.244,20.204,17.127,20.204,18.241z"/>
	</g>
</g>
</svg>
