<?xml version="1.0" encoding="utf-8"?>
<!-- Generator: Adobe Illustrator 16.0.0, SVG Export Plug-In . SVG Version: 6.00 Build 0)  -->
<!DOCTYPE svg PUBLIC "-//W3C//DTD SVG 1.1//EN" "http://www.w3.org/Graphics/SVG/1.1/DTD/svg11.dtd">
<svg version="1.1" id="图层_1" xmlns="http://www.w3.org/2000/svg" xmlns:xlink="http://www.w3.org/1999/xlink" x="0px" y="0px"
	 width="33px" height="33px" viewBox="0 0 33 33" enable-background="new 0 0 33 33" xml:space="preserve">
<g id="底圈">
	<circle fill="#040000" cx="16.349" cy="16.499" r="11.667"/>
</g>
<g id="数字">
	<g enable-background="new    ">
		<path fill="#FFFFFF" d="M16.657,10.722c0.989,0,1.777,0.267,2.363,0.801s0.899,1.27,0.941,2.207h-1.391
			c-0.052-0.558-0.245-0.987-0.578-1.289s-0.778-0.453-1.336-0.453c-0.87,0-1.539,0.417-2.008,1.25
			c-0.406,0.714-0.63,1.685-0.672,2.914c0.698-0.891,1.589-1.336,2.672-1.336c1.063,0,1.918,0.343,2.566,1.027
			s0.973,1.587,0.973,2.707c0,1.121-0.353,2.021-1.059,2.703c-0.706,0.684-1.634,1.023-2.785,1.023c-1.229,0-2.176-0.475-2.84-1.426
			c-0.664-0.949-0.996-2.303-0.996-4.059c0-1.942,0.362-3.44,1.086-4.492C14.313,11.248,15.334,10.722,16.657,10.722z M14.149,18.55
			c0,0.725,0.212,1.316,0.637,1.773c0.425,0.459,0.97,0.688,1.637,0.688s1.212-0.229,1.637-0.688
			c0.425-0.457,0.637-1.049,0.637-1.773c0-0.724-0.212-1.316-0.637-1.777s-0.97-0.691-1.637-0.691s-1.214,0.231-1.641,0.695
			C14.36,17.234,14.149,17.826,14.149,18.55z"/>
	</g>
</g>
</svg>
